Coordinates
version=1
nRows=20
nColumns=38
inDegrees=no

Units are S.I. units (second, meters, Newtons, ...)
If the header above contains a line with 'inDegrees', this indicates whether rotational values are in degrees (yes) or radians (no).

endheader
time	pelvis_tilt	pelvis_list	pelvis_rotation	pelvis_tx	pelvis_ty	pelvis_tz	hip_flexion_r	hip_adduction_r	hip_rotation_r	knee_angle_r	ankle_angle_r	subtalar_angle_r	mtp_angle_r	hip_flexion_l	hip_adduction_l	hip_rotation_l	knee_angle_l	ankle_angle_l	subtalar_angle_l	mtp_angle_l	lumbar_extension	lumbar_bending	lumbar_rotation	arm_flex_r	arm_add_r	arm_rot_r	elbow_flex_r	pro_sup_r	wrist_flex_r	wrist_dev_r	arm_flex_l	arm_add_l	arm_rot_l	elbow_flex_l	pro_sup_l	wrist_flex_l	wrist_dev_l
15	0.149838	1.30835	1.4534	0.752054	-0.314467	0.972227	0.688586	-0.00724061	0.0149269	0.767359	-0.13068	0	0	0.581368	-0.117431	-0.032104	0.710902	-0.12757	0	0	-0.558894	0.0298973	0.148791	0.365295	-0.568932	0.774203	0.719816	0.500792	0	0	0.594215	-0.229392	0.854475	0.340332	0.846663	0	0
15.01	0.148655	1.29683	1.4565	0.752437	-0.317155	0.968089	0.712898	-0.00809048	0.012033	0.784193	-0.126274	0	0	0.608833	-0.118242	-0.0276984	0.735647	-0.120746	0	0	-0.562507	0.0291644	0.154452	0.369142	-0.572511	0.765658	0.72134	0.497134	0	0	0.613331	-0.223657	0.880044	0.333941	0.826678	0	0
15.02	0.147171	1.28498	1.45982	0.752808	-0.319784	0.963738	0.737739	-0.00944792	0.00833651	0.801272	-0.121721	0	0	0.636835	-0.118685	-0.0228718	0.761221	-0.113695	0	0	-0.565053	0.0283042	0.159825	0.372198	-0.576192	0.756321	0.723226	0.492741	0	0	0.63184	-0.217768	0.906462	0.326948	0.807074	0	0
15.03	0.14564	1.27364	1.4628	0.753221	-0.322364	0.959295	0.762193	-0.0107711	0.0049051	0.818707	-0.11684	0	0	0.664468	-0.119073	-0.0181383	0.786948	-0.10692	0	0	-0.56761	0.0269454	0.165388	0.374239	-0.580189	0.745398	0.726038	0.486747	0	0	0.649861	-0.211741	0.93309	0.319731	0.787328	0	0
15.04	0.141693	1.25654	1.46808	0.753727	-0.325045	0.954011	0.79423	-0.0116014	0.00373572	0.838809	-0.105831	0	0	0.699848	-0.118586	-0.0102764	0.815591	-0.0980065	0	0	-0.564614	0.02192	0.181947	0.352401	-0.58567	0.689284	0.738423	0.498859	0	0	0.676385	-0.197566	0.994095	0.304572	0.750113	0	0
15.05	0.142255	1.24401	1.4691	0.754024	-0.327353	0.949343	0.81938	-0.0121097	0.00145681	0.855976	-0.100654	0	0	0.728992	-0.119007	-0.00396344	0.84202	-0.0916365	0	0	-0.565975	0.0214897	0.186048	0.353089	-0.58896	0.674692	0.742487	0.493851	0	0	0.68787	-0.189524	0.98305	0.296934	0.769256	0	0
15.06	0.143754	1.23468	1.46797	0.754434	-0.329529	0.945144	0.840338	-0.0113223	0.000937145	0.871643	-0.0961828	0	0	0.753582	-0.120598	0.000428028	0.866439	-0.0864543	0	0	-0.571105	0.0206237	0.189583	0.357065	-0.591827	0.665028	0.74552	0.491108	0	0	0.699279	-0.183633	0.974891	0.291354	0.785484	0	0
15.07	0.144399	1.22705	1.46731	0.754841	-0.331522	0.941172	0.859007	-0.01037	0.00154145	0.886739	-0.091976	0	0	0.775495	-0.121913	0.00445782	0.889517	-0.0817681	0	0	-0.578185	0.0193429	0.192034	0.363354	-0.593992	0.658863	0.747296	0.490202	0	0	0.710463	-0.179209	0.968691	0.286571	0.801974	0	0
15.08	0.143998	1.22044	1.46738	0.755248	-0.333335	0.937318	0.876249	-0.00929536	0.00327128	0.901427	-0.0880168	0	0	0.795592	-0.122764	0.00836373	0.911575	-0.0772939	0	0	-0.586255	0.0175134	0.1938	0.370905	-0.595549	0.655727	0.747955	0.490639	0	0	0.721404	-0.175544	0.963343	0.281849	0.819549	0	0
15.09	0.143425	1.21452	1.46647	0.755761	-0.335068	0.933587	0.892527	-0.00715232	0.00610572	0.915429	-0.0841065	0	0	0.814316	-0.124268	0.0114753	0.932783	-0.0729505	0	0	-0.594822	0.0151159	0.195943	0.379294	-0.596842	0.654604	0.747912	0.491152	0	0	0.731774	-0.172179	0.957211	0.277083	0.836429	0	0
15.1	0.142258	1.20816	1.4659	0.756288	-0.336736	0.929797	0.909224	-0.00510083	0.00836542	0.929228	-0.080143	0	0	0.833212	-0.12567	0.0143601	0.953412	-0.0685298	0	0	-0.602299	0.0126149	0.198012	0.38726	-0.59796	0.654055	0.747578	0.491157	0	0	0.740893	-0.169037	0.948657	0.272881	0.850975	0	0
15.11	0.140375	1.20159	1.46605	0.756822	-0.338344	0.925953	0.925919	-0.00346745	0.00970199	0.942542	-0.0760047	0	0	0.851936	-0.126559	0.0174134	0.973351	-0.0645065	0	0	-0.60883	0.00985953	0.199515	0.394246	-0.598797	0.652729	0.747498	0.490606	0	0	0.74865	-0.166574	0.936689	0.269723	0.863467	0	0
15.12	0.137194	1.19411	1.46773	0.757313	-0.339891	0.921873	0.943709	-0.00255754	0.0106612	0.956222	-0.0713054	0	0	0.87152	-0.126607	0.0207235	0.993382	-0.0599824	0	0	-0.613459	0.00662994	0.200484	0.399372	-0.599467	0.65018	0.748179	0.491429	0	0	0.75468	-0.164615	0.918832	0.26788	0.878882	0	0
15.13	0.132706	1.1857	1.47112	0.757738	-0.341379	0.917523	0.962887	-0.00254119	0.0116269	0.970998	-0.0659978	0	0	0.89179	-0.125592	0.0244751	1.01296	-0.0547372	0	0	-0.61658	0.00333623	0.200342	0.403759	-0.599556	0.646839	0.749009	0.494193	0	0	0.758818	-0.163923	0.895493	0.268324	0.898625	0	0
15.14	0.12758	1.17774	1.47539	0.758146	-0.342828	0.913131	0.981965	-0.00326449	0.0121553	0.986791	-0.0610163	0	0	0.911109	-0.124124	0.027718	1.0317	-0.0495067	0	0	-0.620077	-7.21098e-05	0.19945	0.408394	-0.599255	0.64403	0.749655	0.49804	0	0	0.762292	-0.164431	0.871393	0.270685	0.918606	0	0
15.15	0.121544	1.16956	1.48158	0.758347	-0.344331	0.908699	1.00132	-0.00549591	0.0122369	1.00276	-0.0555605	0	0	0.930486	-0.1208	0.0319595	1.04952	-0.0441151	0	0	-0.62345	-0.0029883	0.197211	0.412444	-0.598484	0.638626	0.750589	0.503099	0	0	0.764738	-0.165226	0.84081	0.274589	0.944485	0	0
15.16	0.115204	1.16154	1.48798	0.758582	-0.345741	0.904275	1.02038	-0.00753692	0.0132863	1.01863	-0.049752	0	0	0.949413	-0.117656	0.0350243	1.06683	-0.0387897	0	0	-0.626888	-0.00619294	0.195043	0.415495	-0.597018	0.630334	0.751471	0.510022	0	0	0.766387	-0.166749	0.809773	0.280548	0.971774	0	0
15.17	0.109498	1.15532	1.49364	0.758828	-0.347013	0.900121	1.03687	-0.00898445	0.0157424	1.03327	-0.0441199	0	0	0.965802	-0.114825	0.0375939	1.08341	-0.0337712	0	0	-0.632128	-0.00946949	0.193259	0.419068	-0.595706	0.622878	0.75209	0.517328	0	0	0.768604	-0.168745	0.785204	0.286949	0.995949	0	0
15.18	0.104292	1.14997	1.49903	0.759029	-0.348129	0.896134	1.05221	-0.0103381	0.0183696	1.04794	-0.03825	0	0	0.980985	-0.111807	0.0406759	1.09966	-0.0287286	0	0	-0.638001	-0.0125303	0.191382	0.422425	-0.594206	0.615326	0.752575	0.525575	0	0	0.77059	-0.171045	0.761859	0.293547	1.02341	0	0
15.19	0.0994867	1.14557	1.50406	0.759227	-0.349112	0.892324	1.06612	-0.0114987	0.0209889	1.06221	-0.0334241	0	0	0.995075	-0.109169	0.043276	1.11578	-0.0246042	0	0	-0.644434	-0.0156224	0.189797	0.425823	-0.593208	0.61008	0.752984	0.532116	0	0	0.773031	-0.173522	0.744533	0.29969	1.048	0	0
